<?xml version="1.0" encoding="UTF-8"?>
<svg id="Layer_2" xmlns="http://www.w3.org/2000/svg" viewBox="0 0 16.6 32.77">
  <defs>
    <style>
      .cls-1 {
        fill: #2b589d;
      }

      .cls-2 {
        fill: #fff;
      }

      .cls-3 {
        fill: gray;
      }

      .cls-4 {
        opacity: .5;
      }
    </style>
  </defs>
  <g id="Layer_1-2" data-name="Layer_1">
    <g>
      <path class="cls-1" d="M0,15.07v-1.91s16.6,4.54,16.6,4.54v1.91S0,15.07,0,15.07Z"/>
      <path class="cls-2" d="M7.36,2.7c.62-.14,1.01.5,1.41.99.17.21.38.48.63.51.18.03.36-.09.53-.22l-1.63-3.98-1.13,2.76c.06-.03.13-.05.2-.06Z"/>
      <path class="cls-3" d="M13.33,12.27h-2.6l-2.44-6.56-2.44,6.56h-2.6L6.72,3.84c.21-.26.44-.48.71-.54.28-.07.49.18.68.41.2.25.39.52.61.73.2.19.42.35.68.37.27.02.52-.13.74-.31l3.18,7.77Z"/>
      <g>
        <path class="cls-2" d="M9.24,30.07c-.62.14-1.01-.5-1.41-.99-.17-.21-.38-.48-.63-.51-.18-.03-.36.09-.53.22l1.63,3.98,1.13-2.76c-.06.03-.13.05-.2.06Z"/>
        <path class="cls-3" d="M3.27,20.49h2.6l2.44,6.56,2.44-6.56h2.6l-3.46,8.43c-.21.26-.44.48-.71.54-.28.07-.49-.18-.68-.41-.2-.25-.39-.52-.61-.73-.2-.19-.42-.35-.68-.37-.27-.02-.52.13-.74.31l-3.18-7.77Z"/>
      </g>
      <g class="cls-4">
        <path class="cls-1" d="M9.24,30.07c-.62.14-1.01-.5-1.41-.99-.17-.21-.38-.48-.63-.51-.18-.03-.36.09-.53.22l1.63,3.98,1.13-2.76c-.06.03-.13.05-.2.06Z"/>
        <path class="cls-1" d="M3.27,20.49h2.6l2.44,6.56,2.44-6.56h2.6l-3.46,8.43c-.21.26-.44.48-.71.54-.28.07-.49-.18-.68-.41-.2-.25-.39-.52-.61-.73-.2-.19-.42-.35-.68-.37-.27-.02-.52.13-.74.31l-3.18-7.77Z"/>
      </g>
    </g>
  </g>
</svg>