<?xml version="1.0" encoding="UTF-8"?>
<svg id="Layer_2" xmlns="http://www.w3.org/2000/svg" viewBox="0 0 184.81 45">
  <defs>
    <style>
      .cls-1 {
        fill: #2b589d;
      }

      .cls-2 {
        fill: #fff;
      }

      .cls-3 {
        fill: gray;
      }

      .cls-4 {
        opacity: .5;
      }
    </style>
  </defs>
  <g id="Layer_1-2" data-name="Layer_1">
    <g>
      <g>
        <path class="cls-2" d="M71.2,5.72v33.85h-2.95l-21.76-27.47v27.47h-3.58V5.72h2.95l21.81,27.47V5.72h3.53Z"/>
        <path class="cls-1" d="M131.89,5.72l-11.07,33.85h-8.41l-7.45-22.92-7.69,22.92h-8.37l-11.12-33.85h8.12l7.64,23.79,7.98-23.79h7.25l7.74,23.98,7.88-23.98h7.5Z"/>
      </g>
      <g>
        <path class="cls-2" d="M7.32,25.04c-.37-1.68,1.36-2.75,2.69-3.82.58-.47,1.29-1.03,1.39-1.71.07-.48-.23-.98-.61-1.44L0,22.5l7.49,3.07c-.07-.17-.13-.35-.17-.53Z"/>
        <path class="cls-3" d="M33.28,8.85v7.04l-17.79,6.61,17.79,6.61v7.04l-22.87-9.38c-.7-.57-1.3-1.2-1.47-1.93-.18-.77.49-1.32,1.12-1.83.68-.54,1.4-1.05,1.99-1.66.53-.54.94-1.15.99-1.84.05-.74-.36-1.4-.83-2.02l21.06-8.63Z"/>
      </g>
      <g>
        <path class="cls-1" d="M136.84,45h-5.18S143.95,0,143.95,0h5.18s-12.3,45-12.3,45Z"/>
        <g>
          <path class="cls-2" d="M177.49,19.96c.37,1.68-1.36,2.75-2.69,3.82-.58.47-1.29,1.03-1.39,1.71-.07.48.23.98.61,1.44l10.8-4.43-7.49-3.07c.07.17.13.35.17.53Z"/>
          <path class="cls-3" d="M151.53,36.14v-7.04l17.79-6.61-17.79-6.61v-7.04l22.87,9.38c.7.57,1.3,1.2,1.47,1.93.18.77-.49,1.32-1.12,1.83-.68.54-1.4,1.05-1.99,1.66-.53.54-.94,1.15-.99,1.84-.05.74.36,1.4.83,2.02l-21.06,8.63Z"/>
        </g>
        <g class="cls-4">
          <path class="cls-1" d="M177.49,19.96c.37,1.68-1.36,2.75-2.69,3.82-.58.47-1.29,1.03-1.39,1.71-.07.48.23.98.61,1.44l10.8-4.43-7.49-3.07c.07.17.13.35.17.53Z"/>
          <path class="cls-1" d="M151.53,36.14v-7.04l17.79-6.61-17.79-6.61v-7.04l22.87,9.38c.7.57,1.3,1.2,1.47,1.93.18.77-.49,1.32-1.12,1.83-.68.54-1.4,1.05-1.99,1.66-.53.54-.94,1.15-.99,1.84-.05.74.36,1.4.83,2.02l-21.06,8.63Z"/>
        </g>
      </g>
    </g>
  </g>
</svg>