<?xml version="1.0" encoding="UTF-8"?>
<svg id="Layer_2" xmlns="http://www.w3.org/2000/svg" viewBox="0 0 208.39 52.34">
  <defs>
    <style>
      .cls-1 {
        fill: #2b589d;
      }

      .cls-2 {
        fill: #fff;
      }

      .cls-3 {
        fill: gray;
      }

      .cls-4 {
        opacity: .5;
      }
    </style>
  </defs>
  <g id="Layer_1-2" data-name="Layer_1">
    <g>
      <g>
        <path class="cls-1" d="M68.45,29.95l-7.24,22.13h-5.5l-4.87-14.99-5.03,14.99h-5.47l-7.27-22.13h5.31l5,15.56,5.22-15.56h4.74l5.06,15.68,5.15-15.68h4.9Z"/>
        <path class="cls-1" d="M86.25,44.97h-12.87c.47,2.12,2.28,3.41,4.87,3.41,1.8,0,3.1-.54,4.27-1.64l2.62,2.84c-1.58,1.8-3.95,2.75-7.02,2.75-5.88,0-9.71-3.7-9.71-8.76s3.89-8.76,9.07-8.76,8.85,3.35,8.85,8.82c0,.38-.06.92-.09,1.33ZM73.32,42.09h8.38c-.35-2.15-1.96-3.54-4.17-3.54s-3.86,1.36-4.21,3.54Z"/>
        <path class="cls-1" d="M108.16,43.58c0,5.34-3.7,8.76-8.47,8.76-2.28,0-4.11-.73-5.34-2.21v1.96h-4.71v-23.46h4.93v8.25c1.26-1.39,3-2.06,5.12-2.06,4.77,0,8.47,3.42,8.47,8.76ZM103.17,43.58c0-2.94-1.87-4.71-4.33-4.71s-4.33,1.77-4.33,4.71,1.87,4.71,4.33,4.71,4.33-1.77,4.33-4.71Z"/>
        <path class="cls-1" d="M138.29,35.08l-6.17,17.01h-4.74l-3.83-10.56-3.95,10.56h-4.74l-6.13-17.01h4.65l4.02,11.51,4.17-11.51h4.17l4.05,11.51,4.14-11.51h4.36Z"/>
        <path class="cls-1" d="M138.86,43.58c0-5.12,3.95-8.76,9.36-8.76s9.33,3.64,9.33,8.76-3.92,8.76-9.33,8.76-9.36-3.64-9.36-8.76ZM152.55,43.58c0-2.94-1.87-4.71-4.33-4.71s-4.36,1.77-4.36,4.71,1.9,4.71,4.36,4.71,4.33-1.77,4.33-4.71Z"/>
        <path class="cls-1" d="M171.39,34.82v4.55c-.41-.03-.73-.06-1.11-.06-2.72,0-4.52,1.49-4.52,4.74v8.03h-4.93v-17.01h4.71v2.25c1.2-1.64,3.22-2.5,5.85-2.5Z"/>
        <path class="cls-1" d="M181.64,45.41l-2.37,2.34v4.33h-4.93v-23.46h4.93v13.28l7.21-6.83h5.88l-7.08,7.21,7.71,9.8h-5.98l-5.38-6.67Z"/>
        <path class="cls-1" d="M192.99,50.5l1.64-3.54c1.52.98,3.83,1.64,5.91,1.64,2.28,0,3.13-.6,3.13-1.55,0-2.78-10.28.06-10.28-6.73,0-3.23,2.91-5.5,7.87-5.5,2.34,0,4.93.54,6.54,1.49l-1.64,3.51c-1.68-.95-3.35-1.27-4.9-1.27-2.21,0-3.16.7-3.16,1.58,0,2.91,10.27.09,10.27,6.8,0,3.16-2.94,5.41-8.03,5.41-2.88,0-5.79-.79-7.37-1.83Z"/>
      </g>
      <g>
        <path class="cls-2" d="M52.17,3.13v19.6h-2.3l-11.76-14.62v14.62h-2.8V3.13h2.3l11.76,14.62V3.13h2.8Z"/>
        <path class="cls-2" d="M56.29,15.31c0-4.42,3.28-7.56,7.73-7.56s7.7,3.14,7.7,7.56-3.25,7.59-7.7,7.59-7.73-3.16-7.73-7.59ZM69,15.31c0-3.16-2.13-5.21-4.98-5.21s-5.01,2.04-5.01,5.21,2.16,5.24,5.01,5.24,4.98-2.07,4.98-5.24Z"/>
        <path class="cls-2" d="M83.42,7.75v2.6c-.22-.03-.42-.03-.62-.03-2.88,0-4.68,1.76-4.68,5.01v7.39h-2.69V7.89h2.58v2.49c.95-1.74,2.8-2.63,5.4-2.63Z"/>
        <path class="cls-2" d="M100.59,1.95v20.78h-2.58v-2.35c-1.2,1.68-3.11,2.52-5.29,2.52-4.34,0-7.5-3.05-7.5-7.59s3.16-7.56,7.5-7.56c2.1,0,3.95.78,5.18,2.38V1.95h2.69ZM97.93,15.31c0-3.16-2.16-5.21-4.98-5.21s-5.01,2.04-5.01,5.21,2.16,5.24,5.01,5.24,4.98-2.07,4.98-5.24Z"/>
        <path class="cls-2" d="M105.2,3.3c0-.98.78-1.76,1.82-1.76s1.82.76,1.82,1.71c0,1.01-.76,1.79-1.82,1.79s-1.82-.76-1.82-1.74ZM105.68,7.89h2.69v14.84h-2.69V7.89Z"/>
        <path class="cls-2" d="M112.12,15.31c0-4.42,3.28-7.56,7.84-7.56,2.66,0,4.87,1.09,6.05,3.16l-2.04,1.32c-.95-1.46-2.41-2.13-4.03-2.13-2.91,0-5.1,2.04-5.1,5.21s2.18,5.24,5.1,5.24c1.62,0,3.08-.67,4.03-2.13l2.04,1.29c-1.18,2.07-3.39,3.19-6.05,3.19-4.56,0-7.84-3.16-7.84-7.59Z"/>
      </g>
      <path class="cls-1" d="M0,24.36v-2.42s26.37,5.75,26.37,5.75v2.42S0,24.36,0,24.36Z"/>
      <path class="cls-2" d="M11.69,4.29c.99-.22,1.61.8,2.24,1.58.27.34.6.76,1,.82.28.04.57-.14.84-.36L13.18,0l-1.8,4.39c.1-.04.2-.08.31-.1Z"/>
      <path class="cls-3" d="M21.18,19.5h-4.12l-3.87-10.42-3.87,10.42h-4.12l5.49-13.4c.33-.41.71-.76,1.13-.86.45-.11.78.29,1.08.66.32.4.62.82.97,1.17.32.31.67.55,1.08.58.43.03.82-.21,1.18-.49l5.06,12.34Z"/>
      <g>
        <path class="cls-2" d="M14.67,47.77c-.99.22-1.61-.8-2.24-1.58-.27-.34-.6-.76-1-.82-.28-.04-.57.14-.84.36l2.59,6.33,1.8-4.39c-.1.04-.2.08-.31.1Z"/>
        <path class="cls-3" d="M5.19,32.55h4.12l3.87,10.42,3.87-10.42h4.12l-5.49,13.4c-.33.41-.71.76-1.13.86-.45.11-.78-.29-1.08-.66-.32-.4-.62-.82-.97-1.17-.32-.31-.67-.55-1.08-.58-.43-.03-.82.21-1.18.49l-5.06-12.34Z"/>
      </g>
      <g class="cls-4">
        <path class="cls-1" d="M14.67,47.77c-.99.22-1.61-.8-2.24-1.58-.27-.34-.6-.76-1-.82-.28-.04-.57.14-.84.36l2.59,6.33,1.8-4.39c-.1.04-.2.08-.31.1Z"/>
        <path class="cls-1" d="M5.19,32.55h4.12l3.87,10.42,3.87-10.42h4.12l-5.49,13.4c-.33.41-.71.76-1.13.86-.45.11-.78-.29-1.08-.66-.32-.4-.62-.82-.97-1.17-.32-.31-.67-.55-1.08-.58-.43-.03-.82.21-1.18.49l-5.06-12.34Z"/>
      </g>
    </g>
  </g>
</svg>